<?xml version="1.0" encoding="UTF-8"?>
<svg version="1.1" xmlns="http://www.w3.org/2000/svg" width="193" height="128">
<path d="M0 0 C6.57008533 5.93014195 9.95143056 13.67021853 11.0546875 22.37890625 C11.22119025 25.71371843 11.09174001 27.40834978 9.8671875 30.56640625 C7.88646561 32.68372965 6.85326678 33.72652312 4.0546875 34.50390625 C-2.0115562 34.18463027 -2.0115562 34.18463027 -4.57421875 32.31640625 C-6.41933073 29.87728387 -6.74078654 27.68311494 -7.3203125 24.69140625 C-8.58536864 19.24244048 -9.79461356 16.25930053 -13.9453125 12.50390625 C-20.22451945 9.3423475 -28.54071956 9.18327872 -35.23828125 11.19140625 C-39.8214527 13.61957655 -43.93780816 17.44779294 -45.58586121 22.44691467 C-46.85857079 28.16078474 -47.25226808 33.59279349 -47.24609375 39.4375 C-47.25037888 40.35547867 -47.254664 41.27345734 -47.25907898 42.21925354 C-47.26478528 44.14786967 -47.26535009 46.07650731 -47.26098633 48.00512695 C-47.25782458 50.9302289 -47.28133848 53.85431936 -47.30664062 56.77929688 C-47.30891407 58.66536333 -47.30961691 60.55143246 -47.30859375 62.4375 C-47.3178035 63.29822617 -47.32701324 64.15895233 -47.33650208 65.04576111 C-47.28694808 71.65759401 -46.7618894 79.29738456 -42.22993469 84.45677185 C-40.53278858 85.98146804 -38.86952771 87.27902947 -36.9453125 88.50390625 C-36.07326172 89.06464844 -36.07326172 89.06464844 -35.18359375 89.63671875 C-31.95144826 90.8889636 -29.02544566 90.84442388 -25.5703125 90.87890625 C-24.28382812 90.90726562 -22.99734375 90.935625 -21.671875 90.96484375 C-16.20370583 90.2884874 -13.17926287 87.97779141 -9.6953125 83.81640625 C-7.85836098 80.33931944 -7.17948513 77.37232609 -6.421875 73.55859375 C-5.78549288 70.81484789 -5.13362716 69.31492528 -2.9453125 67.50390625 C0.93714225 66.4254466 3.1256994 66.11166683 6.8671875 67.69140625 C9.19290129 69.61842624 9.96518951 70.7283978 11.0546875 73.50390625 C11.72869053 82.04127795 8.71683266 89.49602768 4.0546875 96.50390625 C-2.20981394 103.70867057 -10.29990019 108.73227326 -19.9453125 109.50390625 C-31.98226227 110.29063499 -42.46972575 108.22678331 -51.9453125 100.50390625 C-52.58339844 99.98957031 -53.22148438 99.47523437 -53.87890625 98.9453125 C-60.23866684 93.24204332 -64.58423752 84.60875015 -65.09248352 76.015625 C-65.10232773 75.08363281 -65.11217194 74.15164062 -65.12231445 73.19140625 C-65.13514969 72.12929932 -65.14798492 71.06719238 -65.16120911 69.97290039 C-65.16859604 68.82813232 -65.17598297 67.68336426 -65.18359375 66.50390625 C-65.1916655 65.31724365 -65.19973724 64.13058105 -65.20805359 62.90795898 C-65.22188598 60.39291846 -65.23261191 57.87785923 -65.24047852 55.36279297 C-65.25197042 52.80446835 -65.27237749 50.24616718 -65.30200195 47.68798828 C-65.3449323 43.98062939 -65.36088628 40.27398372 -65.37109375 36.56640625 C-65.38860184 35.43783203 -65.40610992 34.30925781 -65.42414856 33.14648438 C-65.39214361 21.25143921 -62.35484674 11.12864511 -53.9453125 2.50390625 C-38.81555382 -11.45574519 -16.40746988 -12.61859632 0 0 Z " fill="#10FAFA" transform="translate(69.9453125,14.49609375)"/>
<path d="M0 0 C2.23046875 1.64453125 2.23046875 1.64453125 4 4 C4.390625 7.015625 4.390625 7.015625 4.25 10.25 C4.21390625 11.32765625 4.1778125 12.4053125 4.140625 13.515625 C4.09421875 14.33546875 4.0478125 15.1553125 4 16 C4.66386719 15.96519531 5.32773438 15.93039063 6.01171875 15.89453125 C14.99311316 15.61918923 14.99311316 15.61918923 19 19 C21.34168764 22.51253146 21.49623677 23.86469356 21 28 C18.84909549 31.33761045 17.79587201 32.73470933 14 34 C12.27204648 34.06802967 10.54164635 34.08495645 8.8125 34.0625 C7.91144531 34.05347656 7.01039063 34.04445312 6.08203125 34.03515625 C5.39496094 34.02355469 4.70789063 34.01195312 4 34 C4.04640625 34.81984375 4.0928125 35.6396875 4.140625 36.484375 C4.19476563 38.10085937 4.19476563 38.10085937 4.25 39.75 C4.29640625 40.81734375 4.3428125 41.8846875 4.390625 42.984375 C4 46 4 46 2.23046875 48.35546875 C-0.49011468 50.36136301 -2.66964843 50.64307374 -6.02734375 50.4296875 C-8 50 -8 50 -11 48.1875 C-13.91293024 43.54501743 -13.42081874 39.33972223 -13 34 C-13.99580078 34.05220703 -13.99580078 34.05220703 -15.01171875 34.10546875 C-24.13137215 34.38504937 -24.13137215 34.38504937 -28 31 C-30.13272462 28.28562321 -29.99745956 26.95173167 -29.8125 23.4375 C-28.73913043 18.89632107 -28.73913043 18.89632107 -26 17 C-22.98509443 15.99503148 -20.95818308 15.89664697 -17.8125 15.9375 C-16.91144531 15.94652344 -16.01039063 15.95554687 -15.08203125 15.96484375 C-14.39496094 15.97644531 -13.70789063 15.98804688 -13 16 C-13.05800781 15.26394531 -13.11601562 14.52789062 -13.17578125 13.76953125 C-13.54135107 5.86277827 -13.54135107 5.86277827 -11 1.8125 C-6.83239162 -0.70543006 -4.82521399 -0.68931628 0 0 Z " fill="#0CFBFA" transform="translate(168,40)"/>
<path d="M0 0 C1.97265625 0.4296875 1.97265625 0.4296875 4.97265625 2.2421875 C7.88558649 6.88467007 7.39347499 11.08996527 6.97265625 16.4296875 C7.63652344 16.39488281 8.30039063 16.36007813 8.984375 16.32421875 C18.1040284 16.04463813 18.1040284 16.04463813 21.97265625 19.4296875 C24.04381874 22.06571249 23.97265625 23.52278176 23.97265625 26.9296875 C22.97265625 30.4296875 22.97265625 30.4296875 20.53515625 32.8671875 C15.88119018 34.90840069 11.97502964 34.78558758 6.97265625 34.4296875 C7.03066406 35.16574219 7.08867188 35.90179688 7.1484375 36.66015625 C7.51400732 44.56690923 7.51400732 44.56690923 4.97265625 48.6171875 C0.80504787 51.13511756 -1.20212976 51.11900378 -6.02734375 50.4296875 C-8.2578125 48.78515625 -8.2578125 48.78515625 -10.02734375 46.4296875 C-10.41796875 43.4140625 -10.41796875 43.4140625 -10.27734375 40.1796875 C-10.24125 39.10203125 -10.20515625 38.024375 -10.16796875 36.9140625 C-10.1215625 36.09421875 -10.07515625 35.274375 -10.02734375 34.4296875 C-11.02314453 34.48189453 -11.02314453 34.48189453 -12.0390625 34.53515625 C-21.02045691 34.81049827 -21.02045691 34.81049827 -25.02734375 31.4296875 C-27.36903139 27.91715604 -27.52358052 26.56499394 -27.02734375 22.4296875 C-24.87643924 19.09207705 -23.82321576 17.69497817 -20.02734375 16.4296875 C-18.29939023 16.36165783 -16.5689901 16.34473105 -14.83984375 16.3671875 C-13.93878906 16.37621094 -13.03773437 16.38523437 -12.109375 16.39453125 C-11.42230469 16.40613281 -10.73523438 16.41773438 -10.02734375 16.4296875 C-10.07375 15.60984375 -10.12015625 14.79 -10.16796875 13.9453125 C-10.22210938 12.32882813 -10.22210938 12.32882813 -10.27734375 10.6796875 C-10.32375 9.61234375 -10.37015625 8.545 -10.41796875 7.4453125 C-10.02734375 4.4296875 -10.02734375 4.4296875 -8.2578125 2.07421875 C-5.53722907 0.06832449 -3.35769532 -0.21338624 0 0 Z " fill="#0FFAF9" transform="translate(107.02734375,39.5703125)"/>
<path d="M0 0 C0 0.66 0 1.32 0 2 C-1.32 2 -2.64 2 -4 2 C-4 1.34 -4 0.68 -4 0 C-7.02153855 0.11470376 -10.04178401 0.2414385 -13.0625 0.375 C-13.91005859 0.4059375 -14.75761719 0.436875 -15.63085938 0.46875 C-20.72080813 0.70457774 -25.20324451 1.22908629 -30 3 C-30.33 3.66 -30.66 4.32 -31 5 C-32.2375 5.391875 -33.475 5.78375 -34.75 6.1875 C-39.69387575 7.88861854 -41.23617495 10.69168449 -44 15 C-44.66 15 -45.32 15 -46 15 C-46 15.66 -46 16.32 -46 17 C-46.66 17 -47.32 17 -48 17 C-45.69732412 9.90425421 -39.79980078 5.06596576 -33.36328125 1.56640625 C-22.47414379 -2.98602028 -11.27517419 -3.05028867 0 0 Z " fill="#5CEBEC" transform="translate(59,8)"/>
<path d="M0 0 C3 3 3 3 3.4375 5.875 C2.90088229 9.70798361 1.71255676 11.28744324 -1 14 C-4.01490557 15.00496852 -6.04181692 15.10335303 -9.1875 15.0625 C-10.08855469 15.05347656 -10.98960937 15.04445313 -11.91796875 15.03515625 C-12.60503906 15.02355469 -13.29210937 15.01195313 -14 15 C-13.96519531 15.84304687 -13.93039063 16.68609375 -13.89453125 17.5546875 C-13.85392578 19.19824219 -13.85392578 19.19824219 -13.8125 20.875 C-13.76029297 22.51082031 -13.76029297 22.51082031 -13.70703125 24.1796875 C-13.80371094 25.11039063 -13.90039062 26.04109375 -14 27 C-14.99 27.66 -15.98 28.32 -17 29 C-17 27.68 -17 26.36 -17 25 C-16.34 25 -15.68 25 -15 25 C-15.01160156 24.21753906 -15.02320313 23.43507813 -15.03515625 22.62890625 C-15.04417969 21.61699219 -15.05320313 20.60507813 -15.0625 19.5625 C-15.07410156 18.55316406 -15.08570313 17.54382813 -15.09765625 16.50390625 C-15 14 -15 14 -14 13 C-11.15912448 12.71681146 -8.31834785 12.55149787 -5.46875 12.37890625 C-4.6540625 12.25386719 -3.839375 12.12882812 -3 12 C-2.67 11.34 -2.34 10.68 -2 10 C-1.01 10 -0.02 10 1 10 C0.505 5.05 0.505 5.05 0 0 Z " fill="#42EDEB" transform="translate(186,59)"/>
<path d="M0 0 C0 5.38549723 -1.15898922 10.69111945 -2 16 C-8.435 16.495 -8.435 16.495 -15 17 C-15 17.99 -15 18.98 -15 20 C-15.66 20.33 -16.32 20.66 -17 21 C-17.46523063 22.89533342 -17.46523063 22.89533342 -17.625 25.0625 C-17.74875 26.361875 -17.8725 27.66125 -18 29 C-20 26 -20 26 -19.8125 22.5 C-18.74468085 17.90016367 -18.74468085 17.90016367 -16 16 C-12.98509443 14.99503148 -10.95818308 14.89664697 -7.8125 14.9375 C-6.91144531 14.94652344 -6.01039063 14.95554687 -5.08203125 14.96484375 C-4.39496094 14.97644531 -3.70789063 14.98804688 -3 15 C-3.05220703 13.87851562 -3.05220703 13.87851562 -3.10546875 12.734375 C-3.13253906 11.74953125 -3.15960938 10.7646875 -3.1875 9.75 C-3.23970703 8.28820312 -3.23970703 8.28820312 -3.29296875 6.796875 C-2.96075202 3.62531258 -2.11327721 2.32959693 0 0 Z " fill="#71E5E4" transform="translate(158,41)"/>
<path d="M0 0 C1.65322266 0.01740234 1.65322266 0.01740234 3.33984375 0.03515625 C4.99693359 0.04869141 4.99693359 0.04869141 6.6875 0.0625 C7.54214844 0.07410156 8.39679688 0.08570312 9.27734375 0.09765625 C7.27734375 2.09765625 7.27734375 2.09765625 4.89453125 2.29296875 C3.98960938 2.26976563 3.0846875 2.2465625 2.15234375 2.22265625 C0.78722656 2.19558594 0.78722656 2.19558594 -0.60546875 2.16796875 C-1.30414063 2.14476563 -2.0028125 2.1215625 -2.72265625 2.09765625 C-2.67044922 3.23654297 -2.67044922 3.23654297 -2.6171875 4.3984375 C-2.59011719 5.39230469 -2.56304687 6.38617188 -2.53515625 7.41015625 C-2.48294922 8.88935547 -2.48294922 8.88935547 -2.4296875 10.3984375 C-2.72265625 13.09765625 -2.72265625 13.09765625 -4.234375 14.953125 C-4.72550781 15.33082031 -5.21664062 15.70851563 -5.72265625 16.09765625 C-5.72265625 14.44765625 -5.72265625 12.79765625 -5.72265625 11.09765625 C-5.06265625 11.09765625 -4.40265625 11.09765625 -3.72265625 11.09765625 C-3.73425781 10.38738281 -3.74585937 9.67710938 -3.7578125 8.9453125 C-3.76683594 8.02621094 -3.77585937 7.10710937 -3.78515625 6.16015625 C-3.79675781 5.24363281 -3.80835937 4.32710938 -3.8203125 3.3828125 C-3.67719549 0.03387446 -3.38091958 0.12126684 0 0 Z " fill="#6FF2EF" transform="translate(116.72265625,71.90234375)"/>
<path d="M0 0 C0.33 0.66 0.66 1.32 1 2 C-0.216875 2.350625 -1.43375 2.70125 -2.6875 3.0625 C-7.62114575 4.86131597 -9.22243056 7.67025941 -12 12 C-12.66 12 -13.32 12 -14 12 C-14 12.66 -14 13.32 -14 14 C-14.66 14 -15.32 14 -16 14 C-14.64914932 9.86798617 -12.93853539 7.61309671 -9.6875 4.75 C-8.92824219 4.06421875 -8.16898438 3.3784375 -7.38671875 2.671875 C-4.84968197 0.89470358 -3.04710089 0.36673073 0 0 Z " fill="#40EEEC" transform="translate(27,11)"/>
<path d="M0 0 C3 2 3 2 3.8125 5.4375 C4 9 4 9 2 12 C1.67 10.35 1.34 8.7 1 7 C0.01 7 -0.98 7 -2 7 C-2.33 6.01 -2.66 5.02 -3 4 C-2.67 3.34 -2.34 2.68 -2 2 C-1.34 2 -0.68 2 0 2 C0 1.34 0 0.68 0 0 Z " fill="#3DF6F5" transform="translate(127,58)"/>
<path d="M0 0 C1.875 1.5625 1.875 1.5625 3 3 C2.01 3.495 2.01 3.495 1 4 C1 3.34 1 2.68 1 2 C0.01 2.33 -0.98 2.66 -2 3 C-2.33 2.01 -2.66 1.02 -3 0 C-3.99 0.66 -4.98 1.32 -6 2 C-6.99 2 -7.98 2 -9 2 C-9.33 3.32 -9.66 4.64 -10 6 C-10.66 6 -11.32 6 -12 6 C-11.13088303 3.24779627 -10.5527839 1.4343302 -8.25 -0.375 C-5.16083683 -1.23310088 -3.07276879 -0.84991477 0 0 Z " fill="#5EEEED" transform="translate(76,82)"/>
<path d="M0 0 C3.63 0 7.26 0 11 0 C11 0.33 11 0.66 11 1 C7.7 1 4.4 1 1 1 C1.03480469 1.84304687 1.06960937 2.68609375 1.10546875 3.5546875 C1.14607422 5.19824219 1.14607422 5.19824219 1.1875 6.875 C1.23970703 8.51082031 1.23970703 8.51082031 1.29296875 10.1796875 C1.19628906 11.11039063 1.09960938 12.04109375 1 13 C0.01 13.66 -0.98 14.32 -2 15 C-2 13.68 -2 12.36 -2 11 C-1.34 11 -0.68 11 0 11 C0 7.37 0 3.74 0 0 Z " fill="#6DEEEF" transform="translate(171,73)"/>
<path d="M0 0 C0.33 0 0.66 0 1 0 C1 3.96 1 7.92 1 12 C-2 9 -2 9 -2.3125 6 C-2 3 -2 3 0 0 Z " fill="#49E6E7" transform="translate(82,59)"/>
<path d="M0 0 C0.33 0 0.66 0 1 0 C1.08107583 1.93681161 1.13922475 3.8745934 1.1875 5.8125 C1.23970703 7.43091797 1.23970703 7.43091797 1.29296875 9.08203125 C1 12 1 12 -0.51171875 13.88671875 C-1.00285156 14.25410156 -1.49398437 14.62148437 -2 15 C-2 13.35 -2 11.7 -2 10 C-1.34 10 -0.68 10 0 10 C0 6.7 0 3.4 0 0 Z " fill="#4EE4E2" transform="translate(113,73)"/>
</svg>
