<svg xmlns="http://www.w3.org/2000/svg"  viewBox="0 0 48 48" width="48px" height="48px"><linearGradient id="JX0fixNgnsUBoIw83q4Xsa" x1="24" x2="24" y1="231.292" y2="223.023" gradientTransform="matrix(1 0 0 -1 0 238)" gradientUnits="userSpaceOnUse"><stop offset="0" stop-color="#eba600"/><stop offset="1" stop-color="#c28200"/></linearGradient><path fill="url(#JX0fixNgnsUBoIw83q4Xsa)" d="M24.414,10.414l-2.536-2.536C21.316,7.316,20.553,7,19.757,7H5C3.895,7,3,7.895,3,9v30	c0,1.105,0.895,2,2,2h38c1.105,0,2-0.895,2-2V13c0-1.105-0.895-2-2-2H25.828C25.298,11,24.789,10.789,24.414,10.414z"/><linearGradient id="JX0fixNgnsUBoIw83q4Xsb" x1="24" x2="24" y1="227.146" y2="197.017" gradientTransform="matrix(1 0 0 -1 0 238)" gradientUnits="userSpaceOnUse"><stop offset="0" stop-color="#ffd869"/><stop offset="1" stop-color="#fec52b"/></linearGradient><path fill="url(#JX0fixNgnsUBoIw83q4Xsb)" d="M21.586,14.414l3.268-3.268C24.947,11.053,25.074,11,25.207,11H43c1.105,0,2,0.895,2,2v26	c0,1.105-0.895,2-2,2H5c-1.105,0-2-0.895-2-2V15.5C3,15.224,3.224,15,3.5,15h16.672C20.702,15,21.211,14.789,21.586,14.414z"/><path d="M26.164,18.5H18.75c-1.517,0-2.75,1.233-2.75,2.75v14c0,1.517,1.233,2.75,2.75,2.75h10.5	c1.517,0,2.75-1.233,2.75-2.75V24.336L26.164,18.5z" opacity=".05"/><path d="M25.957,19H18.75c-1.24,0-2.25,1.009-2.25,2.25v14c0,1.241,1.01,2.25,2.25,2.25h10.5	c1.24,0,2.25-1.009,2.25-2.25V24.543L25.957,19z" opacity=".07"/><path fill="#50e6ff" d="M31,24.75v10.5c0,0.966-0.784,1.75-1.75,1.75h-10.5C17.784,37,17,36.216,17,35.25v-14	c0-0.966,0.784-1.75,1.75-1.75h7L31,24.75z"/><linearGradient id="JX0fixNgnsUBoIw83q4Xsc" x1="26.238" x2="28.418" y1="213.738" y2="215.918" gradientTransform="matrix(1 0 0 -1 0 238)" gradientUnits="userSpaceOnUse"><stop offset="0" stop-color="#3079d6"/><stop offset="1" stop-color="#297cd2"/></linearGradient><path fill="url(#JX0fixNgnsUBoIw83q4Xsc)" d="M25.75,19.5V23c0,0.966,0.784,1.75,1.75,1.75H31L25.75,19.5z"/></svg>